PathFileType	4	(X/Y/Z)	30_1_14_p1_0-268_filt_butterworth.trc
DataRate	CameraRate	NumFrames	NumMarkers	Units	OrigDataRate	OrigDataStartFrame	OrigNumFrames
60.0	60.0	6	27	m	60.0	134	268
Frame#	Time	RHip			RKnee			RAnkle			RBigToe			RSmallToe			RHeel			LHip			LKnee			LAnkle			LBigToe			LSmallToe			LHeel			Neck			Head			Nose			RShoulder			RElbow			RWrist			RThumb			RIndex			RPinky			LShoulder			LElbow			LWrist			LThumb			LIndex			LPinky			
		X1	Y1	Z1	X2	Y2	Z2	X3	Y3	Z3	X4	Y4	Z4	X5	Y5	Z5	X6	Y6	Z6	X7	Y7	Z7	X8	Y8	Z8	X9	Y9	Z9	X10	Y10	Z10	X11	Y11	Z11	X12	Y12	Z12	X13	Y13	Z13	X14	Y14	Z14	X15	Y15	Z15	X16	Y16	Z16	X17	Y17	Z17	X18	Y18	Z18	X19	Y19	Z19	X20	Y20	Z20	X21	Y21	Z21	X22	Y22	Z22	X23	Y23	Z23	X24	Y24	Z24	X25	Y25	Z25	X26	Y26	Z26	X27	Y27	Z27	
134	2.2333333333333334	0.2294511156732665	0.45767355035588775	0.8514221873039702	0.2510704668559794	0.477070609654165	1.3321673697947207	0.2508980564735064	0.5429770612930274	1.822387267417736	0.2549029247816921	0.3445210258870325	1.8076640485204805	0.30699898716213414	0.373665990878443	1.7997050808963602	0.23685548444851895	0.60264797496104	1.8767862831875193	0.010348590388386087	0.44973567587137286	0.8595152661003311	0.03872248271030888	0.47880627342721305	1.339853528892655	0.03827056287868293	0.5412529887736971	1.8204434879484994	0.09931731590581547	0.3218908231836023	1.789944343909913	0.04463337292781186	0.34788284741887643	1.7919228077568323	0.030762949875274198	0.6207798115018015	1.9080972077693334	0.0996150770549166	0.46920725205273617	0.2275421035130952	0.09752203418681174	0.40552320688872795	-0.008139462870062616	0.10853343193411391	0.3647186870515461	0.11494288631132857	0.28522711583217314	0.46989457544029867	0.35191520486387035	0.3453293216073718	0.49964301602405553	0.6376757481683782	0.36859320740637064	0.3582206013105669	0.8767793790931663	0.3176064270349757	0.25336647347646973	0.9723395570842094	0.32896816211372704	0.25100052604743395	0.9932041252431149	0.34935567555000996	0.35025974118704584	1.0334316714458414	-0.06815264531018089	0.5097335196942678	0.3672241798616758	-0.09056161656725295	0.47742353020330264	0.6458752717037588	-0.09421389598177007	0.39980223177921714	0.8966662774267997	-0.040281137359912414	0.3174984066387327	0.9887848553845602	-0.056563360867239024	0.31287586736232026	0.9960024451031886	-0.1129699260609711	0.38970175432738385	1.0187641606310092
135	2.25	0.22951703225835668	0.45767673396779185	0.8516079168705487	0.25135383112924614	0.4770887348434408	1.3332473075445994	0.25098255296145777	0.5425165185627678	1.8225011656001617	0.25489951607751493	0.3444924699119535	1.807674996965739	0.3069705218596075	0.3736057073822281	1.7996960470452377	0.23696748801198914	0.6029384763045816	1.877019886429078	0.0103643692239331	0.44969339987195317	0.8595905299590714	0.03879898312536448	0.4790784751448103	1.3400190418516298	0.038503663592348275	0.5415510139956271	1.8204130264581244	0.09932772106516716	0.32189607145282284	1.7899890780053087	0.042086078396203944	0.3474268109348953	1.7916040452663131	0.030762514459240144	0.6207805871003188	1.908141500814418	0.09964313286956217	0.4691743045198689	0.2275433278334691	0.09751045969472251	0.4056966634506404	-0.007903318181732481	0.10854105581254331	0.36485256992923437	0.11456598906844695	0.2852431146030619	0.4698947904648241	0.35192511766075285	0.34646504220616253	0.5000786016116043	0.637754882042559	0.3686008452032734	0.3582207455379507	0.8767783079781425	0.3179252614306175	0.2522267513560678	0.971806134914208	0.32890516274443526	0.25097790086324606	0.9933036544343942	0.35061967912609304	0.3530543321426671	1.0334602694294595	-0.0687976396433247	0.5066564683935885	0.3668526471094937	-0.09059078713020444	0.4774289438768118	0.6458769751153877	-0.09415199376389262	0.39985225498169663	0.8966934040947022	-0.04074567783586895	0.3185800860486239	0.9882244298885412	-0.056696602741576826	0.3125972076843031	0.994740427557032	-0.11298304388657297	0.3896481714570321	1.0187742372320967
136	2.2666666666666666	0.22941043181896015	0.4576139497843521	0.8522350278351558	0.25141606258068594	0.47721084591947033	1.334362335316337	0.25102601223674553	0.5429467620391284	1.8225996943904965	0.25490238717404506	0.3445050085581806	1.8076683130960587	0.30695923978999484	0.37356987255311114	1.7996696785261252	0.23704651162592152	0.6031190650833047	1.8772087561398585	0.010404605922669178	0.44969030460384873	0.8598689231250765	0.03884894359034561	0.4792461821807581	1.3401432829120206	0.038756969149680916	0.5420060606788032	1.82046236359476	0.09932991434607882	0.32187623101363744	1.7899705764208402	0.04099074984665178	0.34707691804552643	1.7907834284871358	0.03076903435488786	0.6208048009303413	1.908180103510081	0.09968026560421493	0.4691335392085553	0.22754403320985656	0.09753257559420193	0.4057048870293227	-0.008468872419654225	0.10851081582298508	0.3650206751154134	0.11360682058979112	0.28526011393360573	0.4698990647905089	0.3518956054529065	0.34690621213308753	0.5002116340271878	0.6377975191717757	0.36860450544928003	0.3582256266615519	0.8767789818216638	0.31872053713327897	0.24922896853852466	0.9705846348917153	0.32886079620509995	0.2509535130433076	0.9935325801881352	0.35217788025982866	0.35676499658518873	1.0334827916461184	-0.06963944512387973	0.5025860688645076	0.3663413420867542	-0.09070597845065961	0.4772359520267386	0.6457547813899803	-0.09404907735430695	0.3999729135472551	0.896768774215035	-0.041725987874649206	0.3209069755474753	0.987822241642099	-0.05682970894325454	0.3120972134979369	0.9934806469242325	-0.11299589665921461	0.38954056095202083	1.018754519997599
137	2.283333333333333	0.22929480948096415	0.4575409149448798	0.8532384056871472	0.2512082737823966	0.47737576921348757	1.3348364216109996	0.25103702787042176	0.5433384041981162	1.8226341197377411	0.25490741534565625	0.344523641655113	1.8076572338307249	0.30697145333459197	0.37357263081554437	1.7996452162570238	0.2370698481570438	0.6031589386477132	1.8772824417088942	0.010464336941748314	0.44958783170828603	0.8607285090684681	0.03885940887449121	0.4792741582575732	1.3401938976388101	0.038884019201998916	0.5422630826421004	1.820507736421798	0.09934307100404788	0.32182201660737114	1.7899138942024766	0.04172860316204791	0.346804867333901	1.7901480959728087	0.030811200587171243	0.6208356189949119	1.9080378115164236	0.09971638675625775	0.4690813781573755	0.22754609801872347	0.09754675217998604	0.4056381409821304	-0.009476248889211204	0.10846148987576326	0.3651544198520354	0.11243638023006906	0.2852717161435736	0.46989279142070517	0.35182464680703	0.346903691076577	0.5001729907854112	0.6378202767373907	0.36860496395420606	0.358233463294004	0.8767829506615579	0.31975889704504473	0.24526552335861693	0.9690158159864475	0.3288586924854368	0.25094957864131184	0.9936024654282001	0.35327723815947537	0.3596114603123064	1.0335764683394841	-0.07026780915864253	0.499479070719283	0.36592562822138264	-0.09107521499538837	0.4760259233966626	0.6453125603107635	-0.09403523855845956	0.4001226492647832	0.8968778370725805	-0.043001249289526	0.3239341041845849	0.9874948536270516	-0.05697261611226441	0.3114606556086298	0.9930063573149333	-0.1130308337102016	0.389364566789285	1.018677835553402
138	2.3	0.22926547048914508	0.45749377251775897	0.8542358230515958	0.25091373194011624	0.4774682376708299	1.3341481172740497	0.2510284559660323	0.543482113745179	1.8225901332584447	0.2549141996734692	0.34454514262505703	1.8076577065460944	0.30700412452239645	0.3736050304075991	1.7996385993613144	0.23704286639192165	0.6030826718764251	1.8772259791214254	0.010549622409938675	0.4493103341950935	0.8619337729468751	0.038848921657101125	0.4792470494253994	1.340197459658205	0.0389090497248765	0.5423078283052398	1.8205185266921893	0.09936819999006058	0.32176563453996715	1.7898574487532826	0.04301497669894656	0.3466318026386285	1.7898688115329673	0.030935962970080777	0.6208517468393544	1.9074539544975	0.099740203544459	0.46902345610663887	0.22754608965968623	0.09756733895839834	0.4055354548587008	-0.01003377095748718	0.10843351812566936	0.36518977874489783	0.11161075390192465	0.28527668787900834	0.46986179543320017	0.351831287698542	0.3468325357031269	0.5001736753753491	0.6378519426572011	0.3686062799775548	0.3582403016466882	0.8767906523478117	0.320527509133813	0.24227190321131536	0.9679047877416984	0.32890300154602914	0.2510104116402695	0.9932336681295855	0.3536133295666072	0.36083518714024676	1.033993054991349	-0.07050409474486001	0.4982353919531053	0.3657105205204998	-0.09182751665384487	0.47312947095873936	0.6443983340303614	-0.09449022020154242	0.3998577579492431	0.8967851450171985	-0.04405384862631532	0.32639245712087567	0.9872170120890265	-0.05735094301789716	0.31073584901603396	0.9934345846167806	-0.11309306037885844	0.3891322321182653	1.0185533208154562
139	2.316666666666667	0.22935554147578907	0.45744493606672687	0.8549464990714882	0.2507087308831514	0.47748343979559854	1.3324232837622336	0.25099148451352815	0.543432423779711	1.8224978760377113	0.25492599351734996	0.3445793493226708	1.8076612033002324	0.30704514422373436	0.37364335689762146	1.7996468273888935	0.23695718106622324	0.6028589819765753	1.8770429591070656	0.01064650066002781	0.44894137304325166	0.8628704247784182	0.03883593885224058	0.47922433420329796	1.3401847242997684	0.038898634554448044	0.542259490746535	1.8205090919883107	0.09939480531800061	0.32175468702196336	1.7898478614986488	0.043769458039562975	0.34656715368610463	1.7898203625101772	0.03112091199411276	0.6208621976572023	1.9065401833181839	0.09974754545029968	0.46897348469531175	0.22754154437475638	0.09762466582788037	0.40540955507503657	-0.009590164739269862	0.10844775931004527	0.36512887296955177	0.11134241686702441	0.2852798532130803	0.4697856248407166	0.3521879059386706	0.34690051404123023	0.5003607562966425	0.6379134636951295	0.36860966753298763	0.3582424549502687	0.8768004826070486	0.32077616625029026	0.24115958499601436	0.9675495883018448	0.32902456231135874	0.251173752300082	0.9922598614920521	0.3534775409593893	0.3610489435933772	1.034944338305403	-0.07049577243808704	0.49820740000200203	0.36561607666930396	-0.09279055210940525	0.4693388037046325	0.6428770286851695	-0.09584475161995164	0.39828215781960447	0.8959497613205488	-0.04458499586563286	0.3276678487381217	0.987184837285633	-0.05820507584059004	0.3099925407624681	0.9941603785223069	-0.11316023086205987	0.38889405779950237	1.018441630996014
